<svg width="22" height="22" viewBox="0 0 22 22" fill="none" xmlns="http://www.w3.org/2000/svg">
<path d="M6.51192 12.6166C8.06297 12.6166 9.30602 13.8718 9.30602 15.4338V19.1839C9.30602 20.7349 8.06297 22 6.51192 22H2.79379C1.25373 22 -0.000312805 20.7349 -0.000312805 19.1839V15.4338C-0.000312805 13.8718 1.25373 12.6166 2.79379 12.6166H6.51192ZM19.2065 12.6166C20.7465 12.6166 22.0006 13.8718 22.0006 15.4338V19.1839C22.0006 20.7349 20.7465 22 19.2065 22H15.4883C13.9373 22 12.6942 20.7349 12.6942 19.1839V15.4338C12.6942 13.8718 13.9373 12.6166 15.4883 12.6166H19.2065ZM6.51192 -0.000488281C8.06297 -0.000488281 9.30602 1.26456 9.30602 2.81671V6.56675C9.30602 8.1288 8.06297 9.38284 6.51192 9.38284H2.79379C1.25373 9.38284 -0.000312805 8.1288 -0.000312805 6.56675V2.81671C-0.000312805 1.26456 1.25373 -0.000488281 2.79379 -0.000488281H6.51192ZM19.2065 -0.000488281C20.7465 -0.000488281 22.0006 1.26456 22.0006 2.81671V6.56675C22.0006 8.1288 20.7465 9.38284 19.2065 9.38284H15.4883C13.9373 9.38284 12.6942 8.1288 12.6942 6.56675V2.81671C12.6942 1.26456 13.9373 -0.000488281 15.4883 -0.000488281H19.2065Z" fill="#20409A"/>
</svg>
